<?xml version="1.0" standalone="no"?>
<!DOCTYPE svg PUBLIC "-//W3C//DTD SVG 20010904//EN"
 "http://www.w3.org/TR/2001/REC-SVG-20010904/DTD/svg10.dtd">
<svg version="1.0" xmlns="http://www.w3.org/2000/svg"
 width="640.000000pt" height="640.000000pt" viewBox="0 0 640.000000 640.000000"
 preserveAspectRatio="xMidYMid meet">
<metadata>
Created by potrace 1.11, written by Peter Selinger 2001-2013
</metadata>
<g transform="translate(0.000000,640.000000) scale(0.100000,-0.100000)"
fill="#000000" stroke="none">
<path d="M219 6349 c-68 -11 -119 -51 -155 -119 -17 -34 -18 -151 -18 -3030
l-1 -2995 25 -45 c30 -52 93 -100 146 -109 22 -4 1375 -6 3009 -6 l2970 1 40
21 c46 24 75 54 101 103 17 34 18 150 18 3030 0 2879 -1 2996 -18 3030 -26 49
-55 79 -101 103 l-40 21 -2971 1 c-1634 0 -2986 -3 -3005 -6z m5708 -422 c6
-6 6 -5448 0 -5453 -6 -6 -5448 -6 -5454 -1 -3 4 -6 4986 -3 5409 0 45 1 47
33 50 51 5 5419 0 5424 -5z"/>
<path d="M1301 5157 c-15 -15 -14 -44 2 -54 12 -8 23 -9 175 -13 74 -3 109 -7
188 -24 147 -31 208 -92 235 -236 9 -50 12 -416 12 -1550 0 -817 -2 -1516 -3
-1555 -4 -86 -30 -183 -61 -230 -55 -80 -184 -115 -441 -119 -104 -1 -122 -9
-116 -47 l3 -24 1757 0 1757 0 22 21 c18 19 21 35 24 125 4 132 16 337 20 359
2 9 6 49 10 89 3 40 8 82 11 94 2 12 7 49 10 82 4 33 8 62 9 65 2 3 7 31 10
63 6 53 5 58 -16 66 -33 12 -61 8 -70 -9 -4 -8 -28 -59 -53 -113 -110 -238
-276 -412 -503 -526 -124 -63 -274 -109 -423 -131 -41 -6 -86 -14 -100 -17
-46 -11 -753 -13 -815 -2 -137 22 -217 78 -257 178 -22 56 -22 58 -24 819 l-2
764 497 -5 c273 -3 514 -8 536 -11 402 -66 577 -211 597 -498 2 -28 7 -30 53
-30 14 0 30 0 36 1 10 1 9 83 -7 336 -6 100 -8 381 -4 633 1 106 0 196 -4 199
-10 11 -65 12 -72 2 -3 -5 -8 -30 -11 -56 -21 -172 -139 -288 -358 -351 -175
-51 -204 -53 -771 -57 l-491 -4 1 682 c2 652 3 684 21 728 50 118 140 173 320
196 100 13 660 9 750 -5 333 -54 561 -180 702 -388 53 -79 69 -110 108 -218
35 -96 45 -106 101 -92 l24 6 -6 253 c-13 637 -9 579 -35 598 -22 16 -124 17
-1680 17 -1216 0 -1659 -2 -1668 -11z"/>
</g>
</svg>
